<svg width="36" height="44" xmlns="http://www.w3.org/2000/svg">
 <!-- Generator: sketchtool 55.1 (78136) - https://sketchapp.com -->

 <title>A645EFF4-D841-4BF1-8C33-2C541FDCC5F2@2x</title>
 <desc>Created with sketchtool.</desc>
 <g>
  <title>background</title>
  <rect fill="none" id="canvas_background" height="46" width="38" y="-1" x="-1"/>
 </g>
 <g>
  <title>Layer 1</title>
  <g fill-rule="evenodd" fill="none" id="Desk">
   <g fill="#1E2044" id="Home-Safra">
    <g id="01.HEADER">
     <g id="HEADER">
      <g id="LOGO">
       <path id="Fill-1" d="m70.27313,16.13382c0.08096,-2.49098 -1.95744,-4.76335 -6.25316,-4.84695c-3.03733,-0.04377 -5.29294,1.01397 -5.4947,3.5413c-0.16649,2.10841 0.54195,2.52734 1.91153,3.07236c0.71244,0.7634 6.46443,1.69076 7.62263,1.89617c1.67004,0.29862 5.26088,1.05484 7.17183,3.03415c3.50199,3.70978 1.8789,11.0015 -1.91095,13.48854c-2.59202,1.68474 -6.12905,2.10691 -9.50496,2.1479c-1.54157,0.04493 -5.21164,-0.50588 -7.46164,-2.1479c-2.70676,-1.98393 -4.04233,-5.0182 -4.24409,-7.9222l6.07672,0c0,0.79814 0.25351,2.06314 1.29126,3.16164c1.37221,1.43544 3.63195,1.89582 5.71282,1.81071c2.08512,-0.0418 4.03981,-0.67088 4.83218,-1.43718c1.33282,-1.25886 1.62572,-3.66543 0.12446,-5.17787c-2.00358,-2.1083 -7.99935,-2.1083 -11.91423,-3.45747c-3.2976,-1.14007 -6,-3.54548 -5.50145,-8.51007c0.49981,-4.8921 3.99584,-8.51527 11.41866,-8.51527c1.62012,0 7.28828,0.12737 10.24935,3.92225c1.58393,2.06152 1.9997,4.92742 1.75214,5.93989l-5.8784,0z"/>
       <path id="Fill-3" d="m92.65673,26.75451c-1.66752,1.00946 -3.91157,0.92875 -5.41706,1.2188c-1.78821,0.34042 -3.04672,1.85553 -2.54015,3.71314c0.33458,1.34374 1.36935,2.31486 3.87297,1.89443c3.45699,-0.55069 4.08424,-2.99327 4.08424,-5.52374l0,-1.30263zm0.6671,10.74642c-0.41577,-0.54733 -0.6671,-1.47469 -0.62519,-2.2763c-2.0408,1.93692 -3.83348,3.24268 -7.24718,3.24268c-4.58862,0 -6.83885,-2.60908 -6.67168,-7.03571c0.12573,-3.20471 1.37462,-6.32257 6.54447,-7.21033c2.16309,-0.08626 4.49462,-0.58589 5.87507,-1.05033c1.03798,-0.38245 1.54157,-1.47527 1.45741,-2.57423c0,-1.43011 -1.17057,-2.06452 -3.83657,-2.06452c-3.33389,0 -3.75194,2.06452 -3.83084,3.71255l-5.50167,0c0.08736,-7.29068 6.25213,-7.9662 9.33251,-7.9662c2.25344,0 4.21077,0.37528 5.33932,0.84284c2.25023,0.92596 4.0382,2.77917 4.0382,6.40721l0,12.47272c-0.03927,1.01119 0.5463,2.02493 1.2908,2.69431l0,0.80531l-6.16465,0z"/>
       <path id="Fill-5" d="m100.48449,15.1214l3.1729,0l0,-2.65656c0,-3.40942 1.70931,-5.68769 5.49847,-5.68769l3.62931,0l0,4.38251l-2.04034,0c-0.79225,0 -1.25439,0.50959 -1.25439,1.55725l0,2.40449l3.46294,0l0,3.91785l-3.46294,0l0,18.46171l-5.83305,0l0,-18.46171l-3.1729,0l0,-3.91785z"/>
       <path id="Fill-7" d="m115.48325,14.65383l5.83786,0l0,4.4308l0.08084,0c0.37386,-1.34953 0.66653,-2.14813 2.70779,-3.58658c1.00168,-0.76039 2.33588,-1.51788 4.16839,-1.21949l0,6.02649c-2.49664,-0.29295 -6.25156,-0.63013 -6.95702,4.34118l0,12.85472l-5.83786,0l0,-22.84712z"/>
       <path id="Fill-9" d="m143.15147,26.75451c-1.66752,1.00946 -3.91775,0.92875 -5.41031,1.2188c-1.79255,0.34042 -3.03984,1.85553 -2.54599,3.71314c0.33527,1.34374 1.38092,2.31486 3.87344,1.89443c3.46019,-0.55069 4.08286,-2.99327 4.08286,-5.52374l0,-1.30263zm0.67363,10.74642c-0.41989,-0.54733 -0.67363,-1.47469 -0.63035,-2.2763c-2.04298,1.93692 -3.83072,3.24268 -7.24614,3.24268c-4.58725,0 -6.84241,-2.60908 -6.66882,-7.03571c0.12447,-3.20471 1.36912,-6.32257 6.54298,-7.21033c2.16607,-0.08626 4.50068,-0.58589 5.87267,-1.05033c1.05011,-0.38245 1.54706,-1.47527 1.45603,-2.57423c0,-1.43011 -1.16336,-2.06452 -3.82947,-2.06452c-3.33698,0 -3.74954,2.06452 -3.83656,3.71255l-5.49618,0c0.07912,-7.29068 6.24343,-7.9662 9.33274,-7.9662c2.25035,0 4.20768,0.37528 5.3352,0.84284c2.24427,0.92596 4.03889,2.77917 4.03889,6.40721l0,12.47272c-0.04157,1.01119 0.54194,2.02493 1.29435,2.69431l0,0.80531l-6.16534,0z"/>
       <path id="Fill-12" d="m21.67644,24.86767c-0.09423,-2.09568 -0.87698,-3.36566 -1.65057,-4.13068l0.00939,0c1.02618,0 2.45416,0.90246 2.45416,2.34636c0,0.79709 -0.26954,1.37801 -0.81298,1.78432l0,0zm-3.47072,4.01384l0,-2.01173c0.7413,-0.01656 1.41297,-0.08522 2.0132,-0.20367c-0.28969,1.36886 -1.04484,2.01798 -2.0132,2.2154l0,0zm-2.80111,-2.34439c0.37844,0.13269 0.84859,0.24003 1.46244,0.29538l0,2.00779c-0.73935,-0.26366 -1.37782,-1.01293 -1.46244,-2.30317l0,0zm-0.01008,-5.80013l1.47252,0l0,4.85529c-0.54939,-0.07318 -1.03774,-0.20692 -1.47252,-0.38477l0,-4.47052zm-2.3203,-3.24882c0,-0.72785 0.33126,-1.35798 0.98164,-1.8128l0,3.55867c-0.62324,-0.36056 -0.98164,-1.02288 -0.98164,-1.74587l0,0zm3.79282,-5.61023l0,1.82368c-0.49351,0.01401 -0.96916,0.06693 -1.4187,0.15678c0.16179,-0.90732 0.68244,-1.66042 1.4187,-1.98046l0,0zm2.8689,2.26693c-0.41119,-0.14486 -0.91042,-0.29203 -1.53023,-0.3762l0,-1.97074c0.71713,0.23644 1.32343,0.97691 1.53023,2.34694l0,0zm-1.53023,5.31415l0,-4.46773c0.55923,0.07815 1.09763,0.21536 1.60397,0.40132c-0.0521,1.93137 -1.02745,3.72229 -1.60397,4.06641l0,0zm-2.81119,-4.35588c0.43191,-0.10444 0.92291,-0.16766 1.47252,-0.18306l0,4.59857l-1.47252,0l0,-4.41551zm4.95195,10.32842c-0.58969,0.13582 -1.30271,0.20529 -2.14076,0.22023l0,-4.90264c0.61202,0.14149 2.14191,1.63008 2.14191,4.5452c0,0.0462 -0.00046,0.09194 -0.00115,0.13721l0,0zm-0.53439,-5.91291l-0.06721,0c0.67042,-0.83576 1.20389,-2.15935 1.3595,-3.50494c0.47073,0.28553 0.89279,0.61565 1.25118,0.97807c0.1784,0.18052 0.26771,0.27072 0.40157,0.27072c0.26771,0 0.40156,-0.22556 0.26771,-0.45123c-0.35691,-0.58659 -0.49088,-1.08298 -0.49088,-1.71462c0,-0.40618 0.13397,-0.7671 0.22317,-0.99277c0.0892,-0.22556 0,-0.45124 -0.26771,-0.45124c-0.22317,0 -0.26771,0.18052 -0.35702,0.31588c-0.1713,0.30325 -0.5076,0.56412 -1.00798,0.58462c-0.19271,-2.43841 -1.42569,-3.63255 -2.69737,-3.96197c0.45653,-1.09907 1.5876,-1.77366 3.08061,-2.08247c0.22317,-0.04516 0.40168,-0.13536 0.40168,-0.31588c0,-0.22555 -0.17851,-0.31587 -0.40168,-0.31587c-0.49076,0 -1.2048,0.27072 -1.78488,0.45123c-0.89233,0.27072 -1.65092,0.45123 -2.32031,0.45123c-1.42786,0 -2.67733,-0.63174 -3.07889,-0.63174c-0.1784,0 -0.31237,0.13535 -0.31237,0.31587c0,0.13536 0.08932,0.27071 0.35703,0.36103c1.18614,0.38905 1.95767,1.01096 2.2982,1.84916c-0.70477,0.26168 -1.2892,0.79385 -1.68881,1.48928c-0.47485,-0.96823 -1.07623,-1.39816 -1.94806,-1.39816c-0.84778,0 -1.51717,0.63164 -1.51717,1.39874c0,0.54143 0.35702,0.94762 0.75858,0.94762c0.17852,0 0.26771,-0.0902 0.26771,-0.22556c0,-0.18063 -0.08919,-0.22567 -0.08919,-0.49638c0,-0.27072 0.22305,-0.49639 0.58007,-0.49639c0.53542,0 1.0263,0.54154 1.0263,2.03048l0,0.37087c-1.4037,0.62862 -2.32031,1.73638 -2.32031,3.23898c0,1.54359 1.00661,2.6979 2.32031,3.07306l0,3.80681c-1.00099,-0.8147 -1.5616,-1.8678 -1.91874,-2.63827c-0.0892,-0.18051 -0.17851,-0.40619 -0.40157,-0.40619c-0.2677,0 -0.35702,0.27083 -0.22316,0.58671c0.13385,0.31576 0.22316,0.81215 0.22316,1.26338c0,0.54154 -0.17851,1.03782 -0.53553,1.39885c-0.1784,0.1804 -0.31237,0.31576 -0.31237,0.45123c0,0.1804 0.13397,0.27072 0.26783,0.27072c0.26771,0 0.58007,-0.31588 1.16015,-0.31588c0.35691,0 0.80313,0.18052 1.51718,0.63175c0.07488,0.04458 0.14862,0.09229 0.22305,0.14207l0,0.53472l0,0.63175c0,0.63175 -0.26771,1.03782 -0.80313,1.03782c-0.35702,0 -0.58019,-0.27072 -0.58019,-0.63175c0,-0.27071 0.17851,-0.36091 0.17851,-0.49627c0,-0.13548 -0.0892,-0.22568 -0.26771,-0.22568c-0.26771,0 -0.71393,0.40608 -0.71393,1.08298c0,0.63175 0.44622,1.39886 1.38332,1.39886c0.53061,0 1.02905,-0.16304 1.49542,-0.627c0.43237,0.70631 1.19084,1.33667 2.0487,1.56929c-0.23496,1.19182 -1.04828,2.17117 -2.20546,2.17117c-0.58019,0 -0.89244,-0.31587 -0.89244,-0.72206c0,-0.31588 0.22306,-0.49628 0.40157,-0.58659c0.22305,-0.0902 0.40156,-0.13536 0.40156,-0.40608c0,-0.13536 -0.08931,-0.31587 -0.53553,-0.31587c-0.80313,0 -1.47241,0.72195 -1.47241,1.57937c0,0.9475 0.66928,1.84997 2.0526,1.84997c1.17893,0 2.20546,-0.58463 2.85412,-1.32174c0.76328,0.62364 1.92595,1.14122 2.50053,1.14122c0.1784,0 0.35691,-0.0902 0.35691,-0.27072c0,-0.18051 -0.17851,-0.31587 -0.35691,-0.40607c-1.02641,-0.54143 -1.69568,-1.30854 -1.69568,-2.66223l0,-0.02235c1.59332,-0.30036 3.08347,-1.60658 3.4129,-3.85417c1.45007,-0.62306 2.20946,-1.69678 2.20946,-3.16267c0,-2.1208 -1.96339,-3.5647 -4.01599,-3.5647l0,0zm7.58565,12.72469c-1.56172,0 -2.58801,-0.90246 -2.58801,-2.25616c0,-1.12814 0.75858,-2.0306 1.65103,-2.0306c0.3569,0 0.66927,0.13536 0.66927,0.49639c0,0.22567 -0.0892,0.40607 0.13386,0.40607c0.13385,0 0.26782,-0.13535 0.26782,-0.49627c0,-0.45123 -0.40168,-0.81226 -0.98176,-0.81226l-0.13385,0c0.0892,-0.18052 0.0892,-0.36103 0.0892,-0.40608c0,-0.40619 -0.31225,-0.63174 -0.62462,-0.63174c-0.31237,0 -0.62473,0.18051 -0.62473,0.40607c0,0.09032 0.04465,0.13536 0.13385,0.13536c0.13386,0 0.17851,-0.13536 0.40168,-0.13536c0.1784,0 0.31225,0.09032 0.31225,0.31587c0,0.31588 -0.26771,0.45124 -0.49088,0.58659c-0.71381,0.40619 -1.20469,1.21834 -1.20469,2.16596c0,1.26338 0.71393,2.07564 1.74023,2.43656l-0.66939,1.03782c-0.89233,0 -1.33855,0.67691 -2.14179,2.1208c-0.0892,-0.36103 -0.35703,-0.63175 -0.80325,-0.63175c-0.49076,0 -0.80313,0.36103 -0.80313,0.85731c0,0.13547 0.0892,0.22567 0.17851,0.22567c0.13386,0 0.22306,-0.0902 0.22306,-0.22567c0,-0.22556 0.13385,-0.45123 0.40156,-0.45123c0.31237,0 0.44622,0.22567 0.44622,0.49639c0,0.31587 -0.04454,0.49639 -0.26771,0.8573c-0.93698,1.53421 -2.2311,2.30132 -3.3466,2.30132c-0.98164,0 -1.56172,-0.58659 -1.56172,-1.17318c0,-0.54143 0.31237,-0.99267 0.84779,-0.99267c0.35702,0 0.58008,0.22556 0.58008,0.54144c0,0.27071 -0.22306,0.27071 -0.22306,0.40607c0,0.09032 0.0892,0.13536 0.1784,0.13536c0.26782,0 0.44622,-0.31588 0.44622,-0.63163c0,-0.49639 -0.40156,-0.85742 -0.98164,-0.85742c-0.53542,0 -0.98164,0.36103 -1.11561,0.72194c-0.13386,-0.36091 -0.58008,-0.72194 -1.1155,-0.72194c-0.58007,0 -0.98164,0.36103 -0.98164,0.85742c0,0.31575 0.1784,0.63163 0.44622,0.63163c0.0892,0 0.1784,-0.04504 0.1784,-0.13536c0,-0.13536 -0.22305,-0.13536 -0.22305,-0.40607c0,-0.31588 0.22305,-0.54144 0.58007,-0.54144c0.53542,0 0.84779,0.45124 0.84779,0.99267c0,0.58659 -0.58008,1.17318 -1.56172,1.17318c-1.1155,0 -2.40962,-0.76711 -3.3466,-2.30132c-0.22317,-0.36091 -0.26783,-0.54143 -0.26783,-0.8573c0,-0.27072 0.13386,-0.49639 0.44622,-0.49639c0.26783,0 0.40168,0.22567 0.40168,0.45123c0,0.13547 0.0892,0.22567 0.22306,0.22567c0.08931,0 0.17851,-0.0902 0.17851,-0.22567c0,-0.49628 -0.31237,-0.85731 -0.80325,-0.85731c-0.44622,0 -0.71393,0.27072 -0.80313,0.63175c-0.80324,-1.44389 -1.24946,-2.1208 -2.1419,-2.1208l-0.66928,-1.03782c1.0263,-0.36092 1.74023,-1.17318 1.74023,-2.43656c0,-0.94762 -0.49088,-1.75977 -1.20481,-2.16596c-0.22305,-0.13535 -0.49088,-0.27071 -0.49088,-0.58659c0,-0.22555 0.13386,-0.31587 0.31248,-0.31587c0.22306,0 0.2676,0.13536 0.40157,0.13536c0.0892,0 0.13385,-0.04504 0.13385,-0.13536c0,-0.22556 -0.31236,-0.40607 -0.62473,-0.40607c-0.31236,0 -0.62473,0.22555 -0.62473,0.63174c0,0.04505 0,0.22556 0.0892,0.40608l-0.13374,0c-0.58008,0 -0.98176,0.36103 -0.98176,0.81226c0,0.36092 0.13386,0.49627 0.26771,0.49627c0.22317,0 0.13397,-0.1804 0.13397,-0.40607c0,-0.36103 0.31225,-0.49639 0.66928,-0.49639c0.89244,0 1.65103,0.90246 1.65103,2.0306c0,1.3537 -1.0263,2.25616 -2.58813,2.25616c-1.82943,0 -3.21275,-1.3537 -3.21275,-3.24894c0,-1.84997 1.07095,-3.11346 2.27576,-4.24148l1.0263,-0.99267c1.29401,-1.21833 1.82943,-2.48183 1.82943,-4.06108c0,-1.71473 -1.0263,-3.60985 -3.1681,-4.55747c0.44623,-0.13536 0.71394,-0.58659 0.71394,-1.12802c0,-0.36104 -0.13386,-0.58659 -0.13386,-0.85743c0,-0.54143 0.31237,-0.8573 0.75859,-0.8573c0.40156,0 0.66927,0.31587 0.66927,0.63175c0,0.27071 -0.17851,0.49639 -0.49076,0.49639c-0.13397,0 -0.22317,0 -0.22317,0.13535c0,0.13536 0.13386,0.18052 0.31237,0.18052c0.53542,0 0.80324,-0.45123 0.80324,-0.67691c0.0892,0.04516 0.1784,0.0902 0.31226,0.0902c0.31236,0 0.53553,-0.22555 0.53553,-0.54143c0,-0.0902 -0.04466,-0.22555 -0.17851,-0.22555c-0.08931,0 -0.13386,0.0902 -0.13386,0.18051c0,0.13524 -0.0892,0.22556 -0.22316,0.22556c-0.17852,0 -0.31226,-0.13536 -0.40157,-0.31587c-0.17851,-0.31588 -0.53553,-0.58659 -0.98164,-0.58659c-0.58008,0 -1.0263,0.40607 -1.11561,0.94762c-0.26771,-0.27072 -0.58008,-0.54155 -1.0263,-0.81227c0.35702,-0.22555 0.66939,-0.40607 1.0263,-0.67679c0.53553,-0.40619 1.0263,-0.85742 1.56172,-1.44401l2.45427,-2.70727c2.14191,-2.39152 3.52512,-2.97822 4.86378,-2.97822c1.16015,0 1.74023,0.5867 1.74023,1.26349c0,0.49616 -0.21069,0.86437 -0.54515,1.04628c-0.18997,-0.19464 -0.32955,-0.4605 -0.39184,-0.77556c-0.04465,-0.22556 -0.08931,-0.22556 -0.13397,-0.22556c-0.08919,0 -0.08919,0.0902 -0.08919,0.18052c0,0.38592 0.09103,0.69705 0.24011,0.93812c-0.04901,0.00602 -0.09927,0.00938 -0.15092,0.00938c-0.44622,0 -0.71393,-0.22556 -0.71393,-0.49627c0,-0.04516 0,-0.13547 0.08932,-0.22567c0.08919,-0.0902 0.04454,-0.13536 0,-0.13536c-0.17852,0 -0.35703,0.22556 -0.35703,0.49639c0,0.31587 0.26771,0.7671 1.0263,0.7671c0.11233,0 0.26153,-0.01447 0.42183,-0.06322c0.25168,0.19487 0.56187,0.28878 0.87218,0.28878c0.3103,0 0.62061,-0.09391 0.87217,-0.28878c0.16031,0.04875 0.30951,0.06322 0.42195,0.06322c0.75859,0 1.02618,-0.45123 1.02618,-0.7671c0,-0.27083 -0.17839,-0.49639 -0.3569,-0.49639c-0.04455,0 -0.08932,0.04516 0,0.13536c0.08931,0.0902 0.08931,0.18051 0.08931,0.22567c0,0.27071 -0.26783,0.49627 -0.71405,0.49627c-0.05164,0 -0.10179,-0.00336 -0.1508,-0.00938c0.14908,-0.24107 0.24,-0.5522 0.24,-0.93812c0,-0.09032 0,-0.18052 -0.0892,-0.18052c-0.04454,0 -0.0892,0 -0.13385,0.22556c-0.06229,0.31506 -0.20187,0.58092 -0.39183,0.77556c-0.33458,-0.18191 -0.54516,-0.55012 -0.54516,-1.04628c0,-0.67679 0.58008,-1.26349 1.74023,-1.26349c1.33867,0 2.72187,0.5867 4.86378,2.97822l2.45416,2.70727c0.49088,0.58659 1.0263,1.03782 1.56183,1.44401c0.35691,0.27072 0.66928,0.45124 1.0263,0.67679c-0.44622,0.27072 -0.75859,0.54155 -1.0263,0.81227c-0.08931,-0.54155 -0.53553,-0.94762 -1.11561,-0.94762c-0.44622,0 -0.80324,0.27071 -0.98164,0.58659c-0.08931,0.18051 -0.22317,0.31587 -0.40168,0.31587c-0.13374,0 -0.22305,-0.09032 -0.22305,-0.22556c0,-0.09031 -0.04466,-0.18051 -0.13386,-0.18051c-0.13385,0 -0.17851,0.13535 -0.17851,0.22555c0,0.31588 0.22305,0.54143 0.53542,0.54143c0.13386,0 0.22317,-0.04504 0.31237,-0.0902c0,0.22568 0.26771,0.67691 0.80324,0.67691c0.17851,0 0.31237,-0.04516 0.31237,-0.18052c0,-0.13535 -0.08931,-0.13535 -0.22317,-0.13535c-0.31237,0 -0.49076,-0.18052 -0.49076,-0.49639c0,-0.31588 0.26771,-0.63175 0.66927,-0.63175c0.44622,0 0.75859,0.31587 0.75859,0.8573c0,0.27084 -0.13386,0.49639 -0.13386,0.85743c0,0.54143 0.26771,0.99266 0.71394,1.12802c-2.14191,0.94762 -3.16821,2.84274 -3.16821,4.55747c0,1.57925 0.53553,2.84275 1.82954,4.06108l1.0263,0.99267c1.20481,1.12802 2.27576,2.39151 2.27576,4.24148c0,1.89524 -1.38332,3.24894 -3.21286,3.24894l0,0zm-9.86141,8.39277c-0.35691,-0.72195 -0.75848,-1.17318 -0.93699,-1.39874c0.44622,-0.18052 0.75859,-0.49639 0.93699,-0.85742c0.17851,0.36103 0.49088,0.6769 0.9371,0.85742c-0.17851,0.22556 -0.58008,0.67679 -0.9371,1.39874l0,0zm0.45126,-33.84909c-0.14004,0.06311 -0.29233,0.09715 -0.45126,0.09715c-0.15893,0 -0.31111,-0.03404 -0.45115,-0.09715c0.17428,-0.13339 0.3355,-0.32849 0.45115,-0.60986c0.11576,0.28137 0.27698,0.47647 0.45126,0.60986l0,0zm13.33694,20.2671c-0.26771,0 -0.49087,0.13536 -0.58007,0.31587c-0.35702,-0.81215 -0.71405,-1.57925 -2.27577,-3.02326c0.08932,0.04516 0.40168,0.09031 0.62474,0.09031c0.49088,0 1.0263,-0.13535 1.33866,-0.45123c0.0892,0.31588 0.35691,0.49628 0.66939,0.49628c0.49076,0 0.66928,-0.31576 0.66928,-0.67679c0,-0.13536 -0.04466,-0.27072 -0.17852,-0.27072c-0.26771,0 -0.04465,0.54143 -0.49076,0.54143c-0.17863,0 -0.31248,-0.13536 -0.31248,-0.36091c0,-0.22568 0.13385,-0.49639 0.13385,-0.81227c0,-0.72194 -0.44622,-1.21833 -0.98164,-1.35369c-0.31236,-0.0902 -0.49076,-0.31587 -0.49076,-0.58659c0,-0.36092 0.26771,-0.40607 0.44622,-0.40607c0.1784,0 0.31237,0.04515 0.31237,-0.09032c0,-0.13536 -0.13397,-0.22556 -0.40168,-0.22556c-0.31237,0 -0.75859,0.22556 -0.75859,0.72195c0,0.18052 0.04466,0.36103 0.22317,0.54155c-0.40157,0.0902 -0.75859,0.40607 -0.75859,0.90246c0,0.31576 0.0892,0.63163 0.31237,0.63163c0.26771,0 0.04465,-0.22556 0.04465,-0.58659c0,-0.40607 0.35691,-0.58659 0.71394,-0.58659c0.49076,0 0.93698,0.45123 0.93698,1.03782c0,0.67679 -0.53542,1.12802 -1.38321,1.12802c-0.49087,0 -1.20481,-0.0902 -1.78488,-0.76698c-0.9371,-1.03783 -1.47252,-1.94029 -1.47252,-3.5647c0,-2.07564 1.47252,-3.88057 3.61431,-4.46716c0.44622,-0.13536 0.80325,-0.54154 0.80325,-1.08298c0,-0.45123 -0.26783,-0.81214 -0.71393,-0.81214c-0.17852,0 -0.31237,0.04504 -0.31237,0.1804c0,0.13535 0.13385,0.13535 0.22305,0.13535c0.17851,0 0.40168,0.18052 0.40168,0.49639c0,0.45124 -0.35702,0.72195 -0.75859,0.72195c-0.49087,0 -0.80324,-0.36103 -0.80324,-0.8573c0,-0.94763 1.11561,-1.57926 1.9634,-1.98545c-0.75859,-0.36091 -1.0263,-0.49627 -1.60638,-0.9475c-0.13385,-0.13548 -0.17851,-0.27083 -0.17851,-0.45123c0,-0.22568 0.13386,-0.40619 0.31237,-0.40619c0.13385,0 0.22305,0.09031 0.22305,0.22567c0,0.13536 -0.0892,0.13536 -0.0892,0.22556c0,0.09031 0.04466,0.13536 0.13386,0.13536c0.0892,0 0.31236,-0.0902 0.31236,-0.45123c0,-0.27072 -0.17851,-0.54144 -0.58007,-0.54144c-0.40157,0 -0.71393,0.31588 -0.71393,0.76711c-0.31237,-0.27072 -0.66939,-0.58659 -0.98176,-0.94762l-1.42786,-1.57925c-0.40157,-0.45124 -0.17851,-1.30854 0.40156,-1.30854c0.31237,0 0.44622,0.22556 0.44622,0.40607c0,0.40608 -0.40156,0.22556 -0.40156,0.45123c0,0.0902 0.04466,0.1804 0.17851,0.1804c0.31237,0 0.62462,-0.22555 0.62462,-0.67679c0,-0.40607 -0.35691,-0.7671 -0.84779,-0.7671c-0.58007,0 -0.98164,0.45123 -0.98164,1.08298l-0.44622,-0.49639c-1.9634,-2.16584 -3.56977,-3.11346 -5.13149,-3.11346c-0.58019,0 -1.11561,0.18051 -1.42786,0.40607c-0.26783,-0.31576 -0.40168,-0.54143 -0.58019,-0.81215c-0.1784,0.27072 -0.31225,0.49639 -0.58008,0.81215c-0.31236,-0.22556 -0.84778,-0.40607 -1.42786,-0.40607c-1.56183,0 -3.16809,0.94762 -5.13149,3.11346l-0.44622,0.49639c0,-0.63175 -0.40168,-1.08298 -0.98176,-1.08298c-0.49076,0 -0.84778,0.36103 -0.84778,0.7671c0,0.45124 0.31236,0.67679 0.62473,0.67679c0.13386,0 0.17851,-0.0902 0.17851,-0.1804c0,-0.22567 -0.40156,-0.04515 -0.40156,-0.45123c0,-0.18051 0.13374,-0.40607 0.4461,-0.40607c0.58008,0 0.80325,0.8573 0.40168,1.30854l-1.42786,1.57925c-0.31237,0.36103 -0.66939,0.6769 -0.98176,0.94762c0,-0.45123 -0.31236,-0.76711 -0.71393,-0.76711c-0.40156,0 -0.58007,0.27072 -0.58007,0.54144c0,0.36103 0.22305,0.45123 0.31236,0.45123c0.0892,0 0.13386,-0.04505 0.13386,-0.13536c0,-0.0902 -0.08931,-0.0902 -0.08931,-0.22556c0,-0.13536 0.08931,-0.22567 0.22316,-0.22567c0.17851,0 0.31237,0.18051 0.31237,0.40619c0,0.1804 -0.04466,0.31575 -0.17851,0.45123c-0.53542,0.54143 -0.84779,0.58659 -1.60638,0.9475c0.84779,0.40619 1.9634,1.03782 1.9634,1.98545c0,0.49627 -0.31237,0.8573 -0.80324,0.8573c-0.40157,0 -0.75859,-0.27071 -0.75859,-0.72195c0,-0.31587 0.22317,-0.49639 0.40156,-0.49639c0.08932,0 0.22317,0 0.22317,-0.13535c0,-0.13536 -0.13385,-0.1804 -0.31236,-0.1804c-0.44623,0 -0.71394,0.36091 -0.71394,0.81214c0,0.54144 0.35691,0.94762 0.80313,1.08298c2.14191,0.63163 3.61443,2.39152 3.61443,4.46716c0,1.62441 -0.58007,2.48172 -1.47252,3.5647c-0.58007,0.67678 -1.29401,0.76698 -1.78488,0.76698c-0.84779,0 -1.38332,-0.45123 -1.38332,-1.12802c0,-0.58659 0.44622,-1.03782 0.9371,-1.03782c0.35702,0 0.71393,0.18052 0.71393,0.58659c0,0.36103 -0.22306,0.58659 0.04465,0.58659c0.22306,0 0.31237,-0.31587 0.31237,-0.63163c0,-0.49639 -0.35702,-0.81226 -0.75859,-0.90246c0.17851,-0.18052 0.22306,-0.36103 0.22306,-0.54155c0,-0.49639 -0.44623,-0.72195 -0.75848,-0.72195c-0.26782,0 -0.40168,0.0902 -0.40168,0.22556c0,0.13547 0.13386,0.09032 0.31237,0.09032c0.17851,0 0.44622,0.04515 0.44622,0.40607c0,0.27072 -0.17851,0.49639 -0.49088,0.58659c-0.53542,0.13536 -0.98164,0.63175 -0.98164,1.35369c0,0.31588 0.13397,0.58659 0.13397,0.81227c0,0.22555 -0.13397,0.36091 -0.31248,0.36091c-0.44611,0 -0.22305,-0.54143 -0.49076,-0.54143c-0.13397,0 -0.17851,0.13536 -0.17851,0.27072c0,0.36103 0.17851,0.67679 0.66927,0.67679c0.31248,0 0.58008,-0.1804 0.66939,-0.49628c0.31237,0.31588 0.84779,0.45123 1.33866,0.45123c0.22306,0 0.53542,-0.04515 0.62474,-0.09031c-1.56184,1.44401 -1.91886,2.21111 -2.27577,3.02326c-0.08931,-0.18051 -0.31236,-0.31587 -0.58007,-0.31587c-0.44622,0 -0.66928,0.27083 -0.66928,0.6769c0,0.0902 0,0.36092 0.22306,0.36092c0.17851,0 0.08931,-0.1804 0.08931,-0.31576c0,-0.18051 0.13385,-0.31587 0.35691,-0.31587c0.35691,0 0.44622,0.31587 0.35691,0.81214c-0.04455,0.22568 -0.04455,0.49639 -0.04455,0.72195c0,2.1208 1.56172,3.65501 3.61432,3.65501c0.31236,0 0.58007,-0.04516 0.89244,-0.09031l0.62473,0.94762c-0.44622,0.13536 -0.75859,0.54143 -0.75859,0.99266c0,0.58671 0.44623,1.03782 1.0263,1.03782c0.35702,0 0.62473,-0.18051 0.62473,-0.36091c0,-0.13536 -0.08931,-0.18052 -0.17851,-0.18052c-0.13385,0 -0.13385,0.13536 -0.44622,0.13536c-0.35702,0 -0.62462,-0.27072 -0.62462,-0.63175c0,-0.36091 0.31226,-0.63163 0.75848,-0.63163c0.84778,0 1.24946,0.99266 1.82954,1.98533l0.58007,0.99277c0.9371,1.62442 2.45417,2.57192 3.70363,2.57192c0.17851,0 0.35691,0 0.53542,-0.04504c0.53553,0.54143 1.07095,1.53421 1.29401,1.98532c0.22317,-0.45111 0.75859,-1.44389 1.29412,-1.98532c0.17851,0.04504 0.35691,0.04504 0.53542,0.04504c1.24935,0 2.76653,-0.9475 3.70363,-2.57192l0.58007,-0.99277c0.58008,-0.99267 0.98164,-1.98533 1.82943,-1.98533c0.44622,0 0.75859,0.27072 0.75859,0.63163c0,0.36103 -0.26771,0.63175 -0.62474,0.63175c-0.31225,0 -0.31225,-0.13536 -0.44622,-0.13536c-0.08919,0 -0.17839,0.04516 -0.17839,0.18052c0,0.1804 0.26771,0.36091 0.62461,0.36091c0.5802,0 1.02642,-0.45111 1.02642,-1.03782c0,-0.45123 -0.31237,-0.8573 -0.75859,-0.99266l0.62462,-0.94762c0.31236,0.04515 0.58019,0.09031 0.89244,0.09031c2.05271,0 3.61443,-1.53421 3.61443,-3.65501c0,-0.22556 0,-0.49627 -0.04466,-0.72195c-0.0892,-0.49627 0,-0.81214 0.35702,-0.81214c0.22306,0 0.35691,0.13536 0.35691,0.31587c0,0.13536 -0.0892,0.31576 0.08932,0.31576c0.22305,0 0.22305,-0.27072 0.22305,-0.36092c0,-0.40607 -0.22305,-0.6769 -0.66928,-0.6769l0,0zm-1.16015,7.76113c-1.9634,2.0306 -4.86378,3.4745 -7.63042,4.82819c-1.82943,0.90247 -3.61431,1.80493 -4.99763,2.88779c-1.38321,-1.08286 -3.16809,-1.98532 -4.99764,-2.88779c-2.76652,-1.35369 -5.6669,-2.79759 -7.6303,-4.82819c-2.49882,-2.57191 -3.70363,-5.1891 -3.70363,-8.16721c0,-2.52687 0.98176,-4.64767 3.21275,-7.4903c0.17851,-0.22567 0.35702,-0.45123 0.35702,-0.63186c0,-0.1804 -0.17851,-0.54144 -0.26771,-0.72184l-1.56171,-3.42945c-0.35703,-0.7671 -0.71405,-1.48894 -0.71405,-2.25604c0,-0.63175 0.40168,-1.08298 0.9371,-1.53421l2.23111,-2.0306c0.0892,-0.0902 0.0892,-0.22556 0.04454,-0.31587l-0.71393,-1.48894c-0.0892,-0.18052 -0.0892,-0.31588 0.04465,-0.40619c2.18645,-1.48905 4.016,-1.94029 6.64867,-2.66223c2.49882,-0.67679 4.72992,-1.2635 6.11313,-2.16584c1.38332,0.90234 3.61443,1.48905 6.11324,2.16584c2.63267,0.72194 4.41756,1.26349 6.64867,2.66223c0.13385,0.09031 0.13385,0.22567 0.04465,0.40619l-0.71404,1.48894c-0.04454,0.09031 -0.04454,0.22567 0.04465,0.31587l2.23111,2.0306c0.53542,0.45123 0.9371,0.90246 0.9371,1.53421c0,0.7671 -0.35702,1.48894 -0.71405,2.25604l-1.56171,3.42945c-0.08932,0.1804 -0.26771,0.54144 -0.26771,0.72184c0,0.18063 0.17839,0.40619 0.35702,0.63186c2.4095,2.70727 3.21275,4.96343 3.21275,7.4903c0,2.97811 -1.20481,5.5953 -3.70363,8.16721l0,0zm2.09714,-15.52227c-0.40157,-0.49627 -0.62462,-0.72195 -0.62462,-0.90235c0,-0.18063 0.13386,-0.45123 0.26771,-0.7671l1.33866,-2.97811c0.40157,-0.90246 0.75859,-1.66957 0.75859,-2.61719c0,-0.67679 -0.26771,-1.35369 -0.9371,-1.94028l-1.91874,-1.66957c-0.17851,-0.13536 -0.17851,-0.36091 -0.0892,-0.54143l0.71394,-1.62441c0.04454,-0.0902 0.04454,-0.22567 -0.08932,-0.31587c-2.18645,-1.48906 -4.68526,-2.39152 -7.05023,-3.06843c-2.36496,-0.63163 -5.53305,-1.53409 -7.09488,-2.75243c-1.56172,1.21834 -4.72981,2.07564 -7.09489,2.75243c-2.36484,0.67691 -4.86378,1.57937 -7.05011,3.06843c-0.13397,0.0902 -0.13397,0.22567 -0.08931,0.31587l0.71393,1.62441c0.0892,0.18052 0.0892,0.40607 -0.0892,0.54143l-1.91874,1.66957c-0.66939,0.58659 -0.9371,1.26349 -0.9371,1.94028c0,0.94762 0.35702,1.71473 0.75859,2.61719l1.33866,2.97811c0.13386,0.31587 0.26771,0.58647 0.26771,0.7671c0,0.1804 -0.22317,0.40608 -0.62473,0.90235c-2.00794,2.52687 -2.81119,4.60252 -2.81119,7.35506c0,3.83541 1.8742,6.76848 4.016,8.97948c2.18645,2.25616 5.2208,3.74521 7.98732,5.09879c1.82955,0.90246 3.74817,1.80492 5.53306,3.24893c1.78488,-1.44401 3.70362,-2.34647 5.53317,-3.24893c2.76652,-1.35358 5.84542,-2.84263 7.98732,-5.09879c2.1418,-2.211 4.01588,-5.14407 4.01588,-8.97948c0,-2.75254 -0.80313,-4.82819 -2.81118,-7.35506l0,0z"/>
      </g>
     </g>
    </g>
   </g>
  </g>
 </g>
</svg>